<svg width="252" height="252" viewBox="0 0 252 252" fill="none" xmlns="http://www.w3.org/2000/svg">
<path d="M189 168V84C189.006 82.061 189.549 80.1615 190.568 78.512C191.587 76.8626 193.043 75.5276 194.775 74.655C196.518 73.7705 198.474 73.3904 200.422 73.5573C202.37 73.7243 204.232 74.4317 205.8 75.6C213.545 81.4759 219.825 89.0644 224.148 97.7716C228.472 106.479 230.722 116.068 230.722 125.79C230.722 135.512 228.472 145.101 224.148 153.808C219.825 162.516 213.545 170.104 205.8 175.98C204.232 177.148 202.37 177.856 200.422 178.023C198.474 178.19 196.518 177.809 194.775 176.925C193.105 176.086 191.69 174.816 190.675 173.247C189.659 171.678 189.081 169.867 189 168Z" fill="#F6921E"/>
<path d="M189 31.5H42C30.402 31.5 21 40.902 21 52.5V199.5C21 211.098 30.402 220.5 42 220.5H189C200.598 220.5 210 211.098 210 199.5V52.5C210 40.902 200.598 31.5 189 31.5Z" fill="#652D90"/>
<path d="M115.5 78.75C112.715 78.75 110.045 79.8563 108.075 81.8254C106.106 83.7945 105 86.4653 105 89.25V122.64C98.6921 120.41 91.8381 120.246 85.4309 122.172C79.0237 124.099 73.3963 128.015 69.364 133.354C65.3317 138.693 63.104 145.177 63.0037 151.866C62.9034 158.556 64.9357 165.104 68.8061 170.561C72.6765 176.019 78.184 180.102 84.5306 182.219C90.8771 184.337 97.7331 184.379 104.105 182.339C110.477 180.298 116.034 176.283 119.97 170.873C123.907 165.463 126.019 158.94 126 152.25V102.06C129.267 103.945 131.967 106.675 133.815 109.964C135.662 113.253 136.59 116.979 136.5 120.75C136.5 123.535 137.606 126.206 139.575 128.175C141.545 130.144 144.215 131.25 147 131.25C149.785 131.25 152.455 130.144 154.425 128.175C156.394 126.206 157.5 123.535 157.5 120.75C157.629 115.199 156.631 109.68 154.566 104.526C152.501 99.3715 149.413 94.6897 145.486 90.7636C141.56 86.8375 136.879 83.7486 131.724 81.6836C126.57 79.6187 121.051 78.6207 115.5 78.75Z" fill="#F6921E"/>
</svg>
